<svg xmlns="http://www.w3.org/2000/svg" viewBox="0 0 120 120" fill="none">
  
  <defs>
    <radialGradient id="mvp-face" cx="0.5" cy="0.45" r="0.55">
      <stop offset="0" stop-color="#5b3a26"></stop>
      <stop offset="1" stop-color="#3a2418"></stop>
    </radialGradient>
  </defs>
  <path d="M 22 64 Q 22 34 60 28 Q 98 34 98 64 L 98 99 Q 98 114 80 114 L 40 114 Q 22 114 22 99 Z" fill="url(#mvp-face)" stroke="#1a1410" stroke-width="2"></path>
  <ellipse cx="60" cy="72" rx="32" ry="28" fill="#8b6543"></ellipse>
  <path d="M 32 54 Q 60 42 88 54" stroke="#2a1a0e" stroke-width="3" fill="none" stroke-linecap="round"></path>
  
  <path d="M 40 58 Q 46 62 52 58" stroke="#1a1410" stroke-width="2.5" fill="none" stroke-linecap="round"></path>
  
  <circle cx="74" cy="60" r="6" fill="#fef3c7"></circle>
  <circle cx="74" cy="61" r="3" fill="#1a1410"></circle>
  <circle cx="75.5" cy="59.5" r="1" fill="#fff"></circle>
  
  <ellipse cx="54" cy="76" rx="2" ry="3" fill="#1a1410"></ellipse>
  <ellipse cx="66" cy="76" rx="2" ry="3" fill="#1a1410"></ellipse>
  
  <path d="M 48 84 Q 60 92 72 84" stroke="#1a1410" stroke-width="2.5" fill="none" stroke-linecap="round"></path>
  <ellipse cx="20" cy="68" rx="6" ry="9" fill="#3a2418" stroke="#1a1410" stroke-width="2"></ellipse>
  <ellipse cx="100" cy="68" rx="6" ry="9" fill="#3a2418" stroke="#1a1410" stroke-width="2"></ellipse>
  
  <path d="M 38 28 L 44 14 L 52 22 L 60 10 L 68 22 L 76 14 L 82 28 Z" fill="#fbbf24" stroke="#1a1410" stroke-width="2" stroke-linejoin="round"></path>
  <circle cx="60" cy="20" r="2.5" fill="#ef4444"></circle>
  <circle cx="44" cy="24" r="2" fill="#84cc16"></circle>
  <circle cx="76" cy="24" r="2" fill="#22d3ee"></circle>
</svg>