<svg xmlns="http://www.w3.org/2000/svg" viewBox="0 0 120 120" fill="none">
  
  <defs>
    <radialGradient id="g-face" cx="0.5" cy="0.45" r="0.55">
      <stop offset="0" stop-color="#5b3a26"></stop>
      <stop offset="1" stop-color="#3a2418"></stop>
    </radialGradient>
  </defs>
  
  <path d="M 22 60 Q 22 30 60 24 Q 98 30 98 60 L 98 95 Q 98 110 80 110 L 40 110 Q 22 110 22 95 Z" fill="url(#g-face)" stroke="#1a1410" stroke-width="2"></path>
  
  <ellipse cx="60" cy="68" rx="32" ry="28" fill="#8b6543"></ellipse>
  
  <path d="M 32 50 Q 60 38 88 50" stroke="#2a1a0e" stroke-width="3" fill="none" stroke-linecap="round"></path>
  
  <circle cx="46" cy="56" r="6" fill="#fef3c7"></circle>
  <circle cx="74" cy="56" r="6" fill="#fef3c7"></circle>
  <circle cx="46" cy="57" r="3" fill="#1a1410"></circle>
  <circle cx="74" cy="57" r="3" fill="#1a1410"></circle>
  
  <ellipse cx="54" cy="72" rx="2" ry="3" fill="#1a1410"></ellipse>
  <ellipse cx="66" cy="72" rx="2" ry="3" fill="#1a1410"></ellipse>
  
  <path d="M 50 82 Q 60 88 70 82" stroke="#1a1410" stroke-width="2.5" fill="none" stroke-linecap="round"></path>
  
  <ellipse cx="20" cy="64" rx="6" ry="9" fill="#3a2418" stroke="#1a1410" stroke-width="2"></ellipse>
  <ellipse cx="100" cy="64" rx="6" ry="9" fill="#3a2418" stroke="#1a1410" stroke-width="2"></ellipse>
</svg>