<svg xmlns="http://www.w3.org/2000/svg" viewBox="0 0 120 120" fill="none">
  
  <defs>
    <radialGradient id="troll-face" cx="0.5" cy="0.45" r="0.55">
      <stop offset="0" stop-color="#5b3a26"></stop>
      <stop offset="1" stop-color="#3a2418"></stop>
    </radialGradient>
  </defs>
  <path d="M 22 60 Q 22 30 60 24 Q 98 30 98 60 L 98 95 Q 98 110 80 110 L 40 110 Q 22 110 22 95 Z" fill="url(#troll-face)" stroke="#1a1410" stroke-width="2"></path>
  <ellipse cx="60" cy="68" rx="32" ry="28" fill="#8b6543"></ellipse>
  
  <path d="M 32 54 Q 46 46 52 52" stroke="#2a1a0e" stroke-width="3" fill="none" stroke-linecap="round"></path>
  <path d="M 68 52 Q 74 46 88 54" stroke="#2a1a0e" stroke-width="3" fill="none" stroke-linecap="round"></path>
  
  <circle cx="46" cy="60" r="6" fill="#fef3c7"></circle>
  <circle cx="74" cy="60" r="6" fill="#fef3c7"></circle>
  <circle cx="47" cy="62" r="2.5" fill="#1a1410"></circle>
  <circle cx="75" cy="62" r="2.5" fill="#1a1410"></circle>
  
  <ellipse cx="54" cy="74" rx="2" ry="3" fill="#1a1410"></ellipse>
  <ellipse cx="66" cy="74" rx="2" ry="3" fill="#1a1410"></ellipse>
  
  <path d="M 50 86 L 54 83 L 58 86 L 62 83 L 66 86 L 70 83" stroke="#1a1410" stroke-width="2.5" fill="none" stroke-linecap="round" stroke-linejoin="round"></path>
  <ellipse cx="20" cy="64" rx="6" ry="9" fill="#3a2418" stroke="#1a1410" stroke-width="2"></ellipse>
  <ellipse cx="100" cy="64" rx="6" ry="9" fill="#3a2418" stroke="#1a1410" stroke-width="2"></ellipse>
  
  <path d="M 90 30 Q 96 38 94 44 Q 92 48 88 46 Q 86 42 90 30 Z" fill="#22d3ee" stroke="#1a1410" stroke-width="1.5"></path>
  <ellipse cx="90.5" cy="37" rx="1" ry="1.5" fill="#fff" opacity="0.7"></ellipse>
</svg>